<?xml version="1.0" standalone="no"?>
<!DOCTYPE svg PUBLIC "-//W3C//DTD SVG 1.1//EN" "http://www.w3.org/Graphics/SVG/1.1/DTD/svg11.dtd">
<svg xmlns="http://www.w3.org/2000/svg">
<metadata>Generated by IcoMoon</metadata>
<defs>
<font id="Font-Awesome-Meu-INSS" horiz-adv-x="1024" >
<font-face units-per-em="1024" ascent="960" descent="-64" />
<missing-glyph horiz-adv-x="1024" />
<glyph unicode="&#x20;" horiz-adv-x="512" d="" />
<glyph glyph-name="hand-holding-usd-solid" unicode="&#xe824;" d="M542 671l109-28a17 17 0 0 0 13-16c0-10-8-17-18-17h-71a60 60 0 0 0-23 4c-10 5-22 4-30-4l-38-35a23 23 0 0 1-5-5 23 23 0 0 1 8-32 168 168 0 0 1 69-23v-35c0-18 15-32 35-32h34c20 0 35 14 35 32v35c66 7 116 62 107 126-6 46-45 83-93 96l-109 28a17 17 0 0 0-13 16c0 10 8 17 18 17h72a60 60 0 0 0 22-4c10-5 23-4 31 4l38 35a23 23 0 0 1 4 5 23 23 0 0 1-8 32 168 168 0 0 1-69 23v35c0 18-15 32-34 32h-35c-19 0-35-14-35-32v-35c-66-7-116-62-107-126 6-46 45-83 93-96z m589-367c-24 21-61 20-86 0l-184-148a127 127 0 0 0-80-28h-237a32 32 0 0 0 0 64h157c31 0 61 22 66 53a62 62 0 0 1 1 11 64 64 0 0 1-64 64h-320a235 235 0 0 1-148-53l-93-75h-111a32 32 0 0 1-32-32v-192a32 32 0 0 1 32-32h714a128 128 0 0 1 80 28l302 242a64 64 0 0 1 3 98z" horiz-adv-x="1152" />
<glyph glyph-name="baby-carriage-solid" unicode="&#xe900;" d="M290 906c-22 32-69 44-104 21-2 0-2-2-4-2-114-85-181-217-181-354h511z m703-150h-97c-71 0-128-55-128-123v-123h-767c2-96 45-186 120-250-85-21-138-104-116-187s108-132 195-111c70 17 120 79 120 149 0 17-4 32-8 49 41-11 88-17 137-17s95 6 140 18l-4-1c-6-15-8-32-10-49 0-85 71-153 160-155 88 0 159 68 161 153 0 70-49 132-120 149 75 64 118 154 120 251v122h96c18 0 32 13 32 30v62c0 17-14 31-32 33z m-833-706c-35 0-65 29-65 63s30 62 65 62 65-28 65-62v0c0-36-29-63-65-63z m640 61c0-34-30-62-65-62s-65 28-65 62 29 62 65 62v0c37 0 65-28 65-62z" horiz-adv-x="1024" />
<glyph glyph-name="building-solid" unicode="&#xe901;" d="M872-1h-39v914c0 26-21 47-47 47h-674c0 0 0 0 0 0-26 0-47-21-47-47 0 0 0 0 0 0v0-912h-39c-14 0-24-10-26-24v-41h896v39c0 1 0 1 0 1 0 13-10 23-23 23 0 0 0 0-1 0l0 0z m-616 809c0 1 0 1 0 1 0 13 10 23 23 23 0 0 0 0 1 0l0 0h80c1 0 1 0 1 0 13 0 23-10 23-23 0 0 0 0 0-1l0 0v-80c0-1 0-1 0-1 0-13-10-23-23-23 0 0 0 0-1 0l0 0h-80c-1 0-1 0-1 0-13 0-23 10-23 23 0 0 0 0 0 1l0 0z m0-193c0 1 0 1 0 1 0 13 10 23 23 23 0 0 0 0 1 0l0 0h80c1 0 1 0 1 0 13 0 23-10 23-23 0 0 0 0 0-1l0 0v-80c0-1 0-1 0-1 0-13-10-23-23-23 0 0 0 0-1 0l0 0h-80c-1 0-1 0-1 0-13 0-23 10-23 23 0 0 0 0 0 1l0 0z m104-295h-80c-1 0-1 0-1 0-13 0-23 10-23 23 0 0 0 0 0 1l0 0v80c0 1 0 1 0 1 0 13 10 23 23 23 0 0 0 0 1 0l0 0h80c1 0 1 0 1 0 13 0 23-10 23-23 0 0 0 0 0-1l0 0v-80c0-1 0-1 0-1 0-13-10-23-23-23 0 0 0 0-1 0l0 0z m152-321h-128v167c0 1 0 1 0 1 0 13 10 23 23 23 0 0 0 0 1 0l0 0h80c1 0 1 0 1 0 13 0 23-10 23-23 0 0 0 0 0-1l0 0z m128 345c0-1 0-1 0-1 0-13-10-23-23-23 0 0 0 0-1 0l0 0h-80c-1 0-1 0-1 0-13 0-23 10-23 23 0 0 0 0 0 1l0 0v80c0 1 0 1 0 1 0 13 10 23 23 23 0 0 0 0 1 0l0 0h80c1 0 1 0 1 0 13 0 23-10 23-23 0 0 0 0 0-1l0 0z m0 193c0-1 0-1 0-1 0-13-10-23-23-23 0 0 0 0-1 0l0 0h-80c-1 0-1 0-1 0-13 0-23 10-23 23 0 0 0 0 0 1l0 0v80c0 1 0 1 0 1 0 13 10 23 23 23 0 0 0 0 1 0l0 0h80c1 0 1 0 1 0 13 0 23-10 23-23 0 0 0 0 0-1l0 0z m0 191c0-1 0-1 0-1 0-13-10-23-23-23 0 0 0 0-1 0l0 0h-80c-1 0-1 0-1 0-13 0-23 10-23 23 0 0 0 0 0 1l0 0v80c0 1 0 1 0 1 0 13 10 23 23 23 0 0 0 0 1 0l0 0h80c1 0 1 0 1 0 13 0 23-10 23-23 0 0 0 0 0-1l0 0z" horiz-adv-x="896" />
<glyph glyph-name="calc" unicode="&#xe902;" d="M385 960h-322c0 0-1 0-1 0-34 0-62-28-62-62 0 0 0-1 0-1l0 0v-322c0-35 28-63 63-63h322c35 0 63 28 63 63v322c-2 35-29 63-63 63z m-33-240c0-8-8-15-16-15h-226c-8 0-16 7-16 15v34c0 7 8 15 16 15h226c8 0 16-8 16-15v0z m607-336h-322c-35 0-63-28-63-63v-322c0-35 28-63 63-63h322c35 0 63 28 63 63v324c0 34-27 61-63 61z m-31-303c0-7-8-15-16-15h-226c-8 0-16 8-16 15v34c0 8 8 16 16 16h226c8 0 16-8 16-16v0z m0 126c0-8-8-16-16-16h-226c-8 0-16 8-16 16v34c0 8 8 15 16 15h226c8 0 16-7 16-15v0z m31 753h-322c-35 0-63-28-63-63v-322c0-35 28-63 63-63h322c35 0 63 28 63 63v322c0 0 0 1 0 1 0 34-28 62-62 62 0 0-1 0-1 0l0 0z m-31-240c0-8-8-15-16-15h-81v-81c0-8-7-16-15-16h-34c-8 0-15 8-15 16v0 81h-81c-8 0-16 7-16 15v34c0 7 8 15 16 15h81v81c0 8 7 16 15 16h34c8 0 15-8 15-16v-81h81c8 0 16-8 16-15v0z m-543-336h-322c-35 0-63-28-63-63v-322c0-34 28-61 63-61h322c35 0 63 28 63 63v322c-2 34-29 61-63 61z m-59-279c3-3 5-7 5-11s-2-8-5-11l-23-23c-3-3-7-5-11-5s-8 2-11 5l0 0-57 55-57-57c-3-3-7-5-11-5s-8 2-11 5l0 0-23 23c-3 3-5 7-5 11s2 8 5 11l0 0 55 59-57 57c-3 3-4 7-4 11s1 8 4 11l24 23c2 3 6 5 10 5s8-2 11-5l57-57 57 57c3 3 7 5 11 5s8-2 11-5l23-23c3-3 5-7 5-11s-2-8-5-11l0 0-57-57z" horiz-adv-x="1022" />
<glyph glyph-name="child-solid" unicode="&#xe903;" d="M235 817c0 78 65 143 143 143s144-65 144-143-65-144-144-144c0 0 0 0 0 0-79 0-143 64-143 143 0 0 0 0 0 1v0z m507-3c-11 12-28 20-45 20s-34-8-45-20l-173-172h-201l-173 173c-27 21-69 17-90-10-9-11-15-25-15-41s6-29 15-40l0 0 188-189v-532c0-36 28-63 63-65h32c35 0 63 29 65 65v222h31v-224c0-36 30-63 63-65h31c36 0 63 29 65 65v533l189 188c12 12 19 28 19 46s-7 35-19 47l0 0z" horiz-adv-x="761" />
<glyph glyph-name="clock-solid" unicode="&#xe904;" d="M512 960c-283 0-512-229-512-512s229-512 512-512c283 0 512 229 512 512v0c0 0 0 1 0 1 0 282-229 511-511 511 0 0-1 0-1 0h0z m118-723l-183 132c-6 5-10 12-10 20 0 0 0 0 0 0v0 348c0 15 12 26 26 26h98c14 0 26-11 26-26v-283l132-95c6-4 10-11 10-19 0-5-1-10-4-14l0 0-59-81c-10-12-26-14-36-8z" horiz-adv-x="1024" />
<glyph glyph-name="cubes-solid" unicode="&#xe905;" d="M977 458l-193 73v217c0 31-20 58-47 69l-1 0-198 75c-16 6-34 6-52 0l-198-75c-28-11-47-37-48-67l0 0v-217l-193-73c-28-11-47-37-47-69v-220c0-28 16-51 39-63l0 0 201-101c20-9 44-9 65 0l207 105 207-105c20-9 43-9 65 0l201 101c23 12 39 37 39 65v218c0 30-18 58-47 67z m-260 71l-170-63v136l170 75z m-410 223l205 75 205-77v-2l-205-81-205 85z m170-583l-170-85v158l170 77z m0 224l-205-82-203 82v2l205 77 203-79z m478-224l-169-85v158l169 77z m0 224l-205-82-205 82v2l205 77 205-79z" horiz-adv-x="1024" />
<glyph glyph-name="dollar-sign-solid" unicode="&#xe906;" d="M417 493l-216 63c-32 10-49 44-40 73 8 26 30 42 56 42h132c23 0 47-8 69-22 11-8 29-6 39 4l71 69c12 12 12 33 0 45l-4 4c-48 37-108 59-173 59h0v98c0 1 0 1 0 1 0 17-14 31-32 31 0 0 0 0 0 0h-63c0 0 0 0 0 0-18 0-32-14-32-31 0 0 0 0 0-1v0-96h-5c-120 0-219-99-219-219v-19c12-93 77-170 167-193l205-59c32-10 49-42 40-73-8-26-30-44-57-44h-134c-24 0-48 8-69 22-12 8-30 6-40-4l-65-71c-12-12-12-33 0-45l4-4c48-37 108-59 173-59h0v-96c0-1 0-1 0-1 0-17 14-31 32-31 0 0 0 0 0 0h65c0 0 0 0 0 0 18 0 31 14 31 31 0 0 0 0 0 1v0 96c1 0 1 0 2 0 95 0 177 60 209 144l0 2c40 114-19 240-136 279-2 2-6 2-10 4z" horiz-adv-x="575" />
<glyph glyph-name="file-alt-plus" unicode="&#xe907;" d="M768 640v-453c-30 21-67 34-108 34-102 0-185-83-185-185 0-37 11-72 30-101l-1 1h-456c-26 0-48 22-48 48v0 928c0 26 22 48 48 48v0h400v-272c0-26 22-48 48-48h0z m-216-74h-336c-13 0-24-10-24-24v0-16c0-13 11-24 24-24v0h336c13 0 24 11 24 24v0 16c0 14-11 24-24 24v0z m24-152c0 14-11 24-24 24v0h-336c-13 0-24-10-24-24v0-16c0-13 11-24 24-24v0h336c13 0 24 11 24 24v0z m0-128c0 14-11 24-24 24v0h-336c-13 0-24-10-24-24v0-16c0-13 11-24 24-24v0h336c13 0 24 11 24 24v0z m192 430c0 13-5 25-14 34l-196 196c-9 9-21 14-34 14 0 0 0 0 0 0h-12v-256h256z m0-657v0c-1 7-6 13-13 14l0 0h-69v68c0 7-6 13-13 13l0 0h-28c-7 0-13-6-14-13l0 0v-68h-68c-7-1-13-7-13-14l0 0v-28c0-7 6-13 13-13l0 0h68v-69c1-7 7-12 14-13l0 0h28c7 1 13 6 13 13l0 0v69h69c7 0 12 6 13 13l0 0z" horiz-adv-x="768" />
<glyph glyph-name="file-certificate" unicode="&#xe908;" d="M752 750l-194 196c-9 8-21 14-34 14l0 0h-12v-256h256v12c0 12-6 24-16 34z m-256-111c-28 2-47 22-47 50v271h-402c-26 0-47-21-47-47v-927c0-28 22-50 47-50h672c25 0 47 22 47 48v655z m76-328c1-4 2-9 2-14 0-15-6-28-15-37l0 0-7-8c-6-6-11-14-14-23l0 0-2-10c-5-19-19-33-38-38l0 0-10-3-9-5v-170l-96 48-93-48v170c-1 2-4 4-7 4-1 0-1 0-1 0l0 0-11 3c-19 5-34 19-38 38l0 1-3 10c-3 9-8 17-14 24l0 0-8 7c-10 10-16 24-16 39 0 5 0 9 1 13l0 0 3 8c1 4 1 9 1 14s0 9-1 14l0-1-3 9c-1 4-2 9-2 14 0 14 6 27 15 37l8 8c6 6 10 14 13 23l0 0 3 9c6 18 20 32 38 38l0 0 12 3c9 2 17 7 24 13l0 0 7 8c9 9 23 15 37 15 5 0 10-1 15-2l-1 0 9-3c4-1 9-1 13-1s9 0 14 1l-1 0 11 3c4 1 10 2 15 2 14 0 27-6 37-15l0 0 5-9c7-6 15-10 23-13l1 0 9-4c18-5 32-19 38-37l0-1 4-8c2-9 7-17 12-24l0 0 8-7c9-10 15-23 15-38 0-5 0-9-2-14l0 0-3-8c0-4-1-9-1-14s1-9 1-14l0 1z m-189 117h0c-53-1-96-44-96-97 0-52 43-95 96-95s96 43 96 95c0 53-43 96-96 97h0z" horiz-adv-x="768" />
<glyph glyph-name="file-history" unicode="&#xe909;" d="M449 688v272h-402c-26 0-47-21-47-47v-928c0-27 22-49 47-49h672c26 0 47 21 47 47v656h-270c-27 2-47 22-47 49z m152-366c0 0 0 0 0 0 0-119-96-216-215-219l0 0c-49 0-98 16-138 48-10 8-10 19-4 29l2 2 10 10c4 4 9 6 15 6 5 0 9-1 13-4l0 0c68-55 171-43 226 26s43 171-26 226c-27 22-62 35-100 35-43 0-81-17-110-43l0 0 45-45c3-3 4-6 4-10s-1-7-4-10l0 0c-3-2-6-4-10-4h-128c0 0 0 0 0 0-8 0-14 6-14 14 0 0 0 0 0 0v0 128c0 0 0 0 0 0 0 8 6 14 14 14 0 0 0 0 0 0h0c4 0 7-2 10-4l0 0 43-44c87 83 223 81 307-6 37-38 60-91 60-148 0-1 0-1 0-1v0z m153 427l-195 195c-10 10-21 16-35 16h-12v-256h256v12c0 0 0 0 0 0 0 13-5 25-14 33l0 0z" horiz-adv-x="768" />
<glyph glyph-name="file-holding-usd" unicode="&#xe90a;" d="M496 639c-28 2-47 21-47 49v272h-402c-26 0-47-21-47-47v-928c0-27 22-49 47-49h672c26 0 47 21 47 47v656z m-126-126v19c0 9 8 17 18 17h19c10 0 18-8 18-17v-19c14-2 26-6 37-12l0 0c3-2 6-6 6-10l0-1c0 0 0 0 0 0 0-2-1-4-2-6l0 0c0-1-1-2-2-3l0 0-21-19c-3-3-10-4-16-2-3 2-7 3-12 3h-38c0 0 0 0 0 0-5 0-9-4-9-9l0 0c0-4 3-8 7-9l0 0 58-15c25-7 46-27 49-51 5-34-22-63-57-67v-19c0-9-8-17-18-17 0 0 0 0 0 0l0 0h-19c0 0 0 0-1 0-9 0-17 8-17 17v19c-14 2-27 6-38 12l1 0c-4 2-6 6-6 10 0 0 0 1 0 1l0 0c0 0 0 0 0 0 0 2 1 4 2 6l0 0c0 1 1 2 2 3l0 0 20 18c3 3 6 4 10 4 2 0 5-1 7-2l0 0c3-1 7-2 10-2 1 0 1 0 1 0l0 0h38c0 0 1 0 1 0 5 0 9 4 9 9l0 0c0 4-3 8-7 9l0 0-58 15c-25 7-46 26-49 51-5 34 22 63 57 67z m304-366l-160-129c-12-9-27-14-43-14 0 0 0 0 0 0h-380c-10 0-17 7-17 16v103c0 9 7 17 17 17h59l49 40c21 17 49 28 78 28 1 0 1 0 1 0h171c0 0 0 0 0 0 18 0 34-15 34-34v-1c0-1-1-3-1-5-3-17-18-28-35-28h-83c-1 0-1 0-1 0-10 0-17-8-17-17s7-18 17-18c0 0 0 0 1 0l0 0h125c0 0 1 0 1 0 16 0 30 6 42 15l0 0 98 79c14 11 33 12 46 0 7-6 11-15 11-25 0-11-5-20-13-26l0-1z m78 602l-195 197c-9 8-20 13-33 14l0 0h-12v-256h256v12c0 12-6 23-16 33z" horiz-adv-x="768" />
<glyph glyph-name="file-invoice-dollar-solid" unicode="&#xe90b;" d="M754 749l-195 195c-10 10-21 16-35 16h-12v-256h256v12c0 0 0 0 0 0 0 13-5 25-14 33l0 0z m-305-61v272h-402c-26 0-47-21-47-47v-928c0-27 22-49 47-49h672c26 0 47 21 47 47v656h-270c-27 2-47 22-47 49z m-321 128c0 8 8 16 16 16h159c8 0 16-8 16-16v-31c0-8-8-16-16-16h-159c-8 0-16 8-16 16v0z m0-159v31c0 8 8 16 16 16h159c8 0 16-8 16-16v-31c0-8-8-16-16-16h-159c-8-2-16 6-16 16z m288-528v-49c0-8-8-16-16-16h-32c-8 0-16 8-16 16v0 49c-24 2-45 10-63 24l0 0c-7 6-7 15-2 23l2 2 24 22c6 4 14 6 20 2 8-4 16-8 25-8h55c14 0 24 12 24 26 0 11-6 21-18 25l-88 26c-37 12-63 46-63 86 0 0 0 0 0 0v0c0 48 37 89 84 91v47c0 8 8 16 16 16h32c8 0 16-8 16-16v-47c23-2 45-10 63-22l0 0c7-6 7-15 2-23l-2-2-24-22c-6-4-14-6-20-2-8 4-16 8-25 8h-55c-14 0-24-12-24-26 0-11 6-21 18-25l90-28c37-12 63-46 63-86 0 0 0 0 0 0v0c0-1 0-1 0-2 0-48-38-87-86-89l0 0z" horiz-adv-x="768" />
<glyph glyph-name="file-medical-solid" unicode="&#xe90c;" d="M754 749l-195 195c-10 10-21 16-35 16h-12v-256h256v12c0 0 0 0 0 0 0 13-5 25-14 33l0 0z m-305-61v272h-402c-26 0-47-21-47-47v-928c0-27 22-49 47-49h672c26 0 47 21 47 47v656h-270c-27 2-47 22-47 49z m128-321v-96c0-8-8-16-16-16h-112v-112c0-8-8-16-16-16h-96c-8 0-16 8-16 16v112h-112c-8 0-16 8-16 16v96c0 8 8 16 16 16h112v112c0 8 8 16 16 16h96c8 0 16-8 16-16v-112h112c8 0 14-6 16-16z" horiz-adv-x="768" />
<glyph glyph-name="file-pdf-download" unicode="&#xe90d;" d="M768 716v-12h-256v256h12c13 0 25-5 34-14l196-196c9-9 14-21 14-34z m-393-521h-14v-127h12c18-1 36 4 50 16 12 12 18 29 17 47 1 18-5 36-18 50-13 10-30 16-47 14z m121 444c-27 0-48 22-48 48v273h-400c-26 0-48-22-48-48v-928c0-26 22-48 48-48h672c27 0 48 22 48 48v656l-272-1z m-245-526c-15-14-36-21-56-20h-38v-56c1-11-8-19-18-19 0 0 0 0 0 0h-22c-10 0-18 8-18 18 0 0 0 0 0 0v190c0 11 8 19 18 19h75c22 1 42-6 58-20 15-15 24-35 23-56 1-21-7-41-22-56z m221-61c-23-22-55-34-87-34h-63c-11 0-19 9-20 19v189c0 11 9 19 20 19h58c33 2 65-9 90-31 22-22 33-52 32-83 2-29-9-58-30-79z m40 371l-114-111c-8-8-20-8-28 0l-112 111c-7 7-7 19 0 26 4 4 8 6 13 6h76v93c0 10 8 18 18 18h38c10 0 18-8 18-18v-93h76c11 0 20-7 20-18 1-5-1-10-5-14z m157-214c0-8-6-15-14-15v0h-57v-37h53c6 0 12-6 12-13 0 0 0 0 0 0v-25c0-7-6-12-13-12-1 0-1 0-1 0h-51v-75c0-8-6-14-14-14 0 0 0 0 0 0h-29c-8-1-16 6-16 15 0 0 0 0 0 0v192c0 11 9 20 21 20h93c9 0 16-7 16-16v-20z m-492-12h-20v-56h20c9-1 18 2 25 7 6 5 8 13 8 21 0 7-2 15-7 20-7 6-16 9-26 8z" horiz-adv-x="768" />
<glyph glyph-name="file-save-money" unicode="&#xe90e;" d="M417 348c-74 6-141-8-144-9-5-1-10-6-10-12 0-1 0-2 1-3l0 0c1-6 6-10 12-10 0 0 0 0 0 0h3c1 0 66 14 136 9 0 0 0 0 1 0 7 0 12 5 12 12 0 7-5 13-11 13l0 0z m94-41c-13-1-25-12-25-26 0-14 12-25 26-25s25 11 25 25c0 0 0 0 0 1v0c0 13-11 25-25 25 0 0 0 0-1 0h0z m0 0c-13-1-25-12-25-26 0-14 12-25 26-25s25 11 25 25c0 0 0 0 0 1v0c0 13-11 25-25 25 0 0 0 0-1 0h0z m-94 41c-74 6-141-8-144-9-5-1-10-6-10-12 0-1 0-2 1-3l0 0c1-6 6-10 12-10 0 0 0 0 0 0h3c1 0 66 14 136 9 0 0 0 0 1 0 7 0 12 5 12 12 0 7-5 13-11 13l0 0z m79 291c-28 2-47 21-47 49v272h-402c-26 0-47-21-47-47v-928c0-27 22-49 47-49h672c26 0 47 21 47 47v656z m-156-28c39 0 70-31 70-70 0-39-31-70-70-70s-71 31-71 70c0 0 0 0 0 0v0c1 39 32 70 71 70 0 0 0 0 0 0h0z m304-416c0 0 0 0 0 0 0-6-4-12-10-14l0 0-44-18c-11-25-27-46-47-61l-1-1v-79c0-8-7-15-15-15h-61c0 0 0 0 0 0-7 0-13 5-14 11l0 0-17 50h-143l-17-50c-2-6-7-11-14-11 0 0 0 0 0 0h-61c-9 0-15 7-15 16 0 0 0 0 0 0v0 78c-37 30-61 75-61 125 0 24 5 46 14 66l0-1c43 83 147 92 269 92h38c6 0 11-1 17-1 16 31 48 52 85 52h41c0 0 0 0 0 0 8 0 15-7 15-15 0-5-2-10-6-12l0 0-3-3c-20-16-34-39-39-64l0-1c8-8 16-18 23-28l0-1 53-8c7-2 12-8 13-16v0z m-133 112c-13-1-25-12-25-26 0-14 12-25 26-25s25 11 25 25c0 0 0 0 0 1v0c0 13-11 25-25 25 0 0 0 0-1 0h0z m-94 41c-74 6-141-8-144-9-5-1-10-6-10-12 0-1 0-2 1-3l0 0c1-6 6-10 12-10 0 0 0 0 0 0h3c1 0 66 14 136 9 0 0 0 0 1 0 7 0 12 5 12 12 0 7-5 13-11 13l0 0z m335 401l-195 197c-9 8-20 13-33 14l0 0h-12v-256h256v12c0 12-6 23-16 33z" horiz-adv-x="768" />
<glyph glyph-name="file-solid" unicode="&#xe90f;" d="M449 688v272h-402c-26 0-47-21-47-47v-928c0-27 22-49 47-49h672c26 0 47 21 47 47v656h-270c-27 2-47 22-47 49z m319 28v-12h-256v256h12c13 0 25-6 33-14l0 0 195-197c10-10 16-21 16-33z" horiz-adv-x="768" />
<glyph glyph-name="file-stamp" unicode="&#xe910;" d="M496 640c-26 0-48 22-48 48v272h-400c0 0 0 0 0 0-27 0-48-21-48-48 0 0 0 0 0 0v0-928c0 0 0 0 0 0 0-27 21-48 48-48 0 0 0 0 0 0h672c0 0 0 0 0 0 27 0 48 21 48 48 0 0 0 0 0 0v0 656z m66-557h-356v38h356z m4 98c0-13-10-23-23-23v0h-318c-13 0-23 10-23 23 0 0 0 0 0 0v0 22c0 38 31 69 68 69 0 0 0 0 0 0h48c11 0 21 9 21 21v0c0 22-8 135-17 156-4 8-6 17-6 28 0 0 0 0 0 0v0c0 0 0 0 0 0 0 37 30 68 68 68 33 0 61-24 67-56l0 0c1-4 1-8 1-12 0-11-2-22-7-32l0 1c-9-17-15-127-15-147v-7c0-11 9-21 21-21h47c37 0 68-30 68-68v0z m188 569l-196 196c-9 9-21 14-34 14 0 0 0 0 0 0h-12v-256h256v12c0 13-5 25-14 34v0z" horiz-adv-x="768" />
<glyph glyph-name="file-thumbsup" unicode="&#xe911;" d="M224 174c-11 0-19-8-19-19s8-20 19-20 20 8 20 20-8 19-20 19z m225 514v272h-402c-26 0-47-21-47-47v-928c0-27 22-49 47-49h672c26 0 47 21 47 47v656h-270c-27 2-47 22-47 49z m-171-567c0-12-8-20-20-20h-65c-12 0-20 8-20 20v199c0 12 8 20 20 20h67c12 0 20-8 20-20z m317 209c0-14-6-30-16-39v0c8-22 6-48-8-67 6-22 2-46-14-61 1-4 2-9 2-13 0-9-3-18-8-25l0 0c-17-24-59-26-94-26h-2c-36 2-70 12-100 27l1-1c-12 7-27 12-43 14l0 0c0 0 0 0-1 0-5 0-9 4-9 9 0 0 0 0 0 1l0 0v177c0 2 2 6 2 8 32 31 47 67 73 94 12 14 18 32 22 49 4 16 11 48 27 48 20 0 59-6 59-67 0-36-21-55-27-79h84c30 0 52-22 52-49z m159 419l-195 195c-10 10-21 16-35 16h-12v-256h256v12c0 0 0 0 0 0 0 13-5 25-14 33l0 0z" horiz-adv-x="768" />
<glyph glyph-name="file-user" unicode="&#xe912;" d="M449 688v272h-402c-26 0-47-21-47-47v-928c0-27 22-49 47-49h672c26 0 47 21 47 47v656h-270c-27 2-47 22-47 49z m-65-144c0 0 0 0 0 0 59 0 106-47 106-106 0 0 0 0 0 0v0c0-59-47-108-106-108s-106 47-106 108v0c0 0 0 0 0 0 0 59 47 106 106 106 0 0 0 0 0 0h0z m187-354v-35c0-22-18-40-39-40h-296c-21 0-39 18-39 40v35c0 0 0 0 0 0 0 62 50 112 112 112 0 0 0 0 0 0h14c18-8 39-13 61-13s43 5 62 14l-1-1h14c63 0 112-49 112-112z m183 559l-195 195c-10 10-21 16-35 16h-12v-256h256v12c0 0 0 0 0 0 0 13-5 25-14 33l0 0z" horiz-adv-x="768" />
<glyph glyph-name="file-worker" unicode="&#xe913;" d="M754 750l-196 196c-9 9-21 14-34 14 0 0 0 0 0 0h-12v-256h256v12c0 13-5 25-14 34v0z m-306-62v272h-400c0 0 0 0 0 0-27 0-48-21-48-48 0 0 0 0 0 0v0-928c0 0 0 0 0 0 0-27 21-48 48-48 0 0 0 0 0 0h672c0 0 0 0 0 0 27 0 48 21 48 48 0 0 0 0 0 0v0 656h-272c-26 0-48 22-48 48v0z m145-552v-37c0 0 0 0 0 0 0-24-19-43-43-43 0 0 0 0 0 0h-315c-24 0-43 19-43 43v0 37c0 67 54 121 120 121h15c19-9 42-15 65-15s46 6 66 15l0 0h14c0 0 0 0 0 0 67 0 121-54 121-121v0z m-315 242h228c-8-74-88-127-169-89-20 11-37 27-46 47-7 12-11 27-13 42l0 0z m235 72c0 0 0 0 0 0 4 0 7-3 7-7 0 0 0 0 0 0v0-28c0 0 0 0 0 0 0-4-3-7-7-7 0 0 0 0 0 0h-244c0 0 0 0 0 0-4 0-7 3-7 7 0 0 0 0 0 0v0 29c1 3 4 6 7 7l0 0h9c4 40 27 74 61 92l1 0 23-48v56c0 0 0 0 0 0 0 8 6 14 14 14 0 0 0 0 0 0h29c0 0 0 0 0 0 8 0 14-6 14-14 0 0 0 0 0 0v0-59l26 50h1c20-10 36-26 46-46l0 0c7-14 12-29 13-46l0 0z" horiz-adv-x="768" />
<glyph glyph-name="hand-holding-baby" unicode="&#xe914;" d="M1005 263c-21 19-54 18-76 0l-164-131c-19-16-44-25-71-25 0 0 0 0 0 0h-210c-16 0-29 12-29 28s13 29 29 29h139c28 0 54 19 59 47 0 3 1 6 1 9 0 32-26 57-57 57 0 0 0 0 0 0h-285c-50 0-96-17-132-47l1 1-83-67h-99c-15-1-28-13-28-29v-171c0-15 13-28 28-28h635c0 0 0 0 0 0 27 0 52 9 71 25l0 0 269 215c13 10 21 26 21 44 0 17-7 32-19 43l0 0z m-493 517c50 0 90 40 90 90s-40 90-90 90c-50 0-90-40-90-90v0c0-50 40-90 90-90v0z m-151-78c17-12 38-23 59-30l2-1v-35h180v35c23 8 44 19 62 32l-1-1 46 32c11 9 19 22 19 37 0 25-20 45-45 45-10 0-19-3-26-8l0 0-46-32c-27-20-62-31-99-31s-72 11-100 31l1 0-46 32c-7 5-16 8-26 8-25 0-45-20-45-45 0-15 8-28 19-36l0-1z m51-108l-52-65c-6-7-10-17-10-28 0-10 3-19 9-27l0 0 54-72c8-11 21-18 36-18 25 0 45 20 45 45 0 11-3 20-9 27l0 0-33 44 29 36z m136-201c7-5 17-9 27-9 15 0 28 7 36 18l0 0 54 72c6 8 9 17 9 27 0 11-4 21-10 29l0-1-52 65-69-58 29-36-33-44c-6-7-9-16-9-27 0-14 7-27 18-36l0 0z" horiz-adv-x="1024" />
<glyph glyph-name="hand-holding-man" unicode="&#xe915;" d="M434 577h17v-148c0-14 12-26 26-26v0h70c14 0 26 12 26 26v0 148h17c15 0 26 12 26 26v0 148c0 0 0 0 0 0 0 29-23 52-52 52h-12c-12-5-26-8-40-8s-28 3-40 9l0-1h-12c-29 0-52-23-52-52 0 0 0 0 0 0v0-148c0-14 11-26 26-26v0z m148 313c0-38-31-69-70-69s-70 31-70 69c0 39 31 70 70 70s70-31 70-70z m423-627c-21 19-54 18-76 0l-164-131c-19-16-44-25-71-25 0 0 0 0 0 0h-210c-16 0-29 12-29 28s13 29 29 29h139c28 0 54 19 59 47 0 3 1 6 1 9 0 32-26 57-57 57 0 0 0 0 0 0h-285c-50 0-96-17-132-47l1 1-83-67h-99c-15-1-28-13-28-29v-171c0-15 13-28 28-28h635c0 0 0 0 0 0 27 0 52 9 71 25l0 0 269 215c13 10 21 26 21 44 0 17-7 32-19 43l0 0z" horiz-adv-x="1024" />
<glyph glyph-name="hand-holding-secure-hart" unicode="&#xe916;" d="M495 390c7-3 14-5 21-5s15 2 21 5l0 0c96 39 249 178 249 426 0 23-14 42-33 50l0 0-216 90c-6 2-13 4-21 4s-14-2-21-4l1 0-216-90c-20-8-33-27-33-50 0 0 0 0 0 0v0c0-222 128-376 248-426z m-89 380c29 25 73 20 100-7l10-11 11 11c27 27 70 32 99 7 17-14 27-35 27-58 0-21-8-40-21-53l0 0-104-107c-3-3-7-5-12-5s-9 2-12 5l0 0-103 107c-14 13-22 32-22 53 0 23 11 44 27 58l0 0z m598-507c12-11 19-26 19-43 0-18-8-34-21-44l0 0-269-215c-19-16-44-25-71-25 0 0 0 0 0 0h-634c-15 0-28 13-28 28v0 171c0 16 13 28 28 28v0h99l83 67c35 29 81 47 131 47 0 0 0 0 0 0h284c32 0 57-25 57-57v0c0 0 0 0 0 0 0-3 0-6-1-10l0 1c-4-28-30-48-59-48h-139c-15 0-28-12-28-28s13-28 28-28v0h211c0 0 0 0 0 0 27 0 51 9 71 25l-1-1 165 132c22 17 54 19 75 0z" horiz-adv-x="1023" />
<glyph glyph-name="hand-holding-security-usd" unicode="&#xe917;" d="M1004 263c12-11 19-26 19-43 0-18-8-34-21-44l0 0-269-215c-19-16-44-25-71-25 0 0 0 0 0 0h-634c-15 0-28 13-28 28v0 171c0 16 13 28 28 28v0h99l83 67c35 29 81 47 131 47 0 0 0 0 0 0h284c32 0 57-25 57-57v0c0 0 0 0 0 0 0-3 0-6-1-10l0 1c-4-28-30-48-59-48h-139c-15 0-28-12-28-28s13-28 28-28v0h211c0 0 0 0 0 0 27 0 51 9 71 25l-1-1 165 132c22 17 54 19 75 0z m-311 467h-25v74c0 86-70 156-156 156s-156-70-156-156v0-74h-25c-27 0-49-22-49-49v-198c0-27 22-49 49-49h362c0 0 0 0 0 0 27 0 49 22 49 49v198c0 27-22 49-49 49 0 0 0 0 0 0h0z m-161-223v-14c-1-7-6-13-13-13 0 0-1 0-1 0l0 0h-13c-7 0-13 6-13 13v14c-10 1-19 4-27 8l0 0c-2 2-4 5-4 8 0 0 0 0 0 0v0c0 2 0 3 1 5l0 0c0 0 1 1 2 2l14 13c3 3 8 3 12 1 3-1 6-1 9-1h27c1 0 1 0 1 0 3 0 6 3 6 6v0c0 3-2 6-5 7l-41 10c-19 5-34 19-36 37-4 25 16 46 41 48v14c0 7 6 12 13 12h13c8 0 14-5 14-12v-14c10-1 19-4 26-9l0 1c3-2 4-5 5-8l0 0c0-2-1-3-2-5l0 0c0 0-1-1-1-2l-15-13c-3-3-8-3-12-2-2 1-5 2-8 2h-28c-4 0-7-3-7-6 1-3 3-6 5-7l0 0 42-11c19-5 33-19 36-36 3-25-16-46-41-48z m54 223h-148v74c0 41 33 74 74 74s74-33 74-74v0z" horiz-adv-x="1023" />
<glyph glyph-name="hourglass-half-solid" unicode="&#xe918;" d="M721 960h-674c-26 0-47-21-47-47v-32c0-26 21-47 47-47h0c0-181 103-335 242-384-139-51-242-205-242-386-26 0-47-21-47-47v-32c0-27 22-49 47-49h672c26 0 47 21 47 47v32c0 26-21 47-47 47l0 0c0 181-103 335-242 384 139 49 242 203 242 384 26 0 47 21 47 47v36c2 25-20 47-45 47z m-152-768h-370c33 95 104 160 185 160s152-67 185-160z m0 512h-370c-14 38-21 82-22 128l0 0h416c0-46-9-90-25-130l1 2z" horiz-adv-x="766" />
<glyph glyph-name="inss-logo" unicode="&#xe919;" d="M478 788c269 68 490-11 536-153 49-156-84-366-375-498 15 181 241 216 229 381-174 16-174 254-390 270z m66-680c-271-67-490 11-534 154-49 155 84 366 375 497-15-181-241-216-229-380 172-17 170-256 388-271z m172 366l36-2v-49l-36-2z m-37 164l-40 10 7-39 44-7z m-51 11l-49 6 3-38 52-6z m-121 68l-42-2-5-16c16 2 31 3 47 2z m57-24l-47 2v-27l51-2z m-58-34l-52-2-3-40 55 1z m230-79l-31 7 7-38 33-8z m42-59l-24 8 6-46 24-2z m-77 15l-47 4 1-51 48-2z m-58 5l-53 2 1-53 55-1z m-4 59l-53 4 2-50 53-3z m-66 5l-55 2v-49l59-2z m-137-1l-51-4-6-49 53 3z m-64-6l-44-7-7-46 46 4z m-66-67l-31-6-3-40 32 2z m-44-61l-25-2v-42l24-1z m99 4l-46-2v-53l46-2z m-55-66l-36 4 3-48 37-7z m68-123l-44 10 11-37 40-11z m-7 57l-46 6 7-46 44-7z m75-109l-46 5 7-27 44-8z m64 43l-55 2 2-40 53-2z m-73 63l-54 3 6-49 53-4z m-2 67l-55 2 2-53 53-2z m0 68l-55-2v-53l55-2z m327-61l24 2-4-40-22-7z m-104-69l45 4-5-44-46-7z m5 64l48 2-2-49-48-6z m-67 0h54l-1-53-53-4z m0 68l54-2v-55l-54-2z m-214 65l53 2v-53l-55-1z m139-312l51 2-4-30-47-1z m67 51l51 4-7-39-49-5z m-67 57l58 2-2-50-56-2z m-74 67l59 2v-57l-59 2z m2 139l59 2v-55l-59-1z m75-67h59v-59h-59z m-14-293h49v-24h-49z" horiz-adv-x="1024" />
<glyph glyph-name="lion-face" unicode="&#xe91a;" d="M1014 739l-174 177c-3 7-11 8-17 10-44 6-212 30-309 32-100-2-268-26-312-32-8-2-14-3-20-10l-172-177c-7-8-12-18-10-30l62-312 61-249c2-10 9-18 18-22l0 0 356-184c4-2 10-3 16-3l0 0c5 0 9 2 15 3l356 184c9 4 16 12 20 22l59 243v2l61 318c0 10-4 20-10 28z m-236-386l-131-81c-6-4-10-8-10-13l-8-42c-2-12-9-22-19-28l0 0-82-45c-4-2-10-4-16-4l0 0c-6 0-12 2-17 4l1 0-82 45c-10 6-17 16-19 27l0 1-8 42c0 5-4 9-10 13l-131 81c-12 10-19 26-15 42l53 328c0 2 2 3 4 4l0 0c74 16 150 25 224 29 74-4 150-13 224-29 2-1 4-3 4-4v-1l53-327c4-16-3-32-15-42z m-140 195c-15 0-38 12-42 16s7 45 7 45l109 22-5 36c-2 10-9 16-16 18-60 12-119 20-178 20h-2c-59 0-118-8-178-20-7-2-13-8-15-18l-6-36 109-24s12-35 7-43c-5-7-32-19-43-16-12 3-77 53-77 53l-28-196c0-2 0-3 0-4 0-7 4-13 10-16l0 0 112-70c9-3 16-3 24 2l38 30c4 2 5 8 5 12 2 6 0 19-3 25-11 19-68 42-79 61l17 8c23-12 71-18 108-23 37 5 84 11 107 23l17-8c-10-19-67-42-78-61-3-6-6-19-4-25 0-4 2-10 6-12l37-30c9-5 16-5 24-2l113 70c6 3 10 9 10 16 0 1 0 2 0 4l0 0-28 197s-62-54-78-54z m-117-233c-4 2-6 4-9 4s-5-1-9-4l-55-43c-5-3-8-9-8-15 0-2 0-3 0-5l0 0 2-13c0-7 4-12 10-14l0 0 49-28c3-2 7-3 11-3s8 1 11 3l0 0 49 28c6 2 10 7 10 14v0l2 14c0 1 0 2 0 4 0 6-3 12-8 15l0 0z" horiz-adv-x="1024" />
<glyph glyph-name="money-check-alt-solid" unicode="&#xe91b;" d="M973 806h-922c0 0 0 0 0 0-28 0-51-23-51-51 0 0 0 0 0 0v0-615c0 0 0 0 0 0 0-28 23-51 51-51 0 0 0 0 0 0h922c0 0 0 0 0 0 28 0 51 23 51 51 0 0 0 0 0 0v0 615c0 0 0 0 0 0 0 28-23 51-51 51 0 0 0 0 0 0h0z m-691-473v-25c0 0 0 0 0-1 0-6-5-11-12-11 0 0 0 0 0 0l0 0h-26c0 0 0 0 0 0-7 0-12 5-12 11 0 1 0 1 0 1l0 0v25c-17 0-35 8-51 18-6 4-6 12-2 18l2 2 20 18c4 4 12 4 16 2 5-4 12-6 19-6 0 0 0 0 0 0h46c11 0 19 7 19 19v2c0 10-6 18-13 20l-73 22c-30 9-52 37-52 69 0 39 30 70 69 72v24c0 0 0 0 0 0 0 7 5 12 12 12 0 0 0 0 0 0l0 0h26c0 0 0 0 0 0 6 0 12-5 12-12 0 0 0 0 0 0l0 0v-26c17 0 35-7 51-17 6-4 6-12 2-18l-2-2-20-18c-4-4-12-4-16-2-5 4-12 6-19 6 0 0 0 0 0 0h-44c-11 0-19-8-19-19v-2c0-8 6-16 13-20l73-22c30-10 51-37 51-69-3-37-33-69-70-71z m384 26c0-8-6-12-14-12h-179c-1 0-1 0-1 0-6 0-11 5-11 12 0 0 0 0 0 0l0 0v26c0 0 0 0 0 0 0 6 5 11 11 11 0 0 0 0 1 0l0 0h179c8 0 14-6 14-11v0z m256 0c0-8-6-12-14-12h-128c-8 0-14 6-14 12v0 26c0 7 6 11 14 11h128c8 0 14-6 14-11v0z m0 154c0-8-6-12-14-12h-435c-1 0-1 0-1 0-6 0-11 5-11 11 0 0 0 0 0 1l0 0v25c0 0 0 1 0 1 0 6 5 11 11 11 0 0 0 0 1 0l0 0h435c8 0 14-6 14-12v0z" horiz-adv-x="1024" />
<glyph glyph-name="print-solid" unicode="&#xe91c;" d="M894 576v230c0 18-8 33-19 45l0 0-89 88c-12 12-29 20-45 20h-548c-36 0-65-29-65-65v-320c-71 2-128-55-128-126v-224c0 0 0 0 0 0 0-18 14-31 31-31 0 0 0 0 0 0h97v-193c0-33 29-63 65-63h638c36 0 63 30 65 65v191h97c0 0 0 0 0 0 17 0 31 13 31 31 0 0 0 0 0 0v0 224c-2 71-59 128-130 128z m-127-511h-512v192h512z m0 446h-512v320h384v-96c0 0 0 0 0 0 0-18 14-31 31-31 0 0 0 0 0 0h97z m96-144c0 0 0 0 0 0-26 0-47 22-47 48s21 47 47 47c26 0 47-21 47-47v0c0-26-21-47-47-48h0z" horiz-adv-x="1024" />
<glyph glyph-name="search-file-alt" unicode="&#xe91d;" d="M455 615h95v-229c0 0 0 0 0 0 0-9-7-16-17-16 0 0 0 0 0 0h-234c0 0 0 0 0 0-9 0-16 7-16 16 0 0 0 0 0 0v0 324c0 0 0 0 0 0 0 9 7 16 16 16 0 0 0 0 0 0h140v-94c0-10 7-17 16-17h0z m20-45h-117c-5 0-8-4-8-8 0 0 0 0 0 0v0-6c0-4 3-8 8-8h117c5 0 8 4 8 8v6c0 5-3 8-8 8h0z m8-53c0 5-3 9-8 9h-117c-5 0-8-4-8-9 0 0 0 0 0 0v0-5c0-5 3-8 8-9h117c5 1 8 4 8 9v0z m0-44c0 4-3 8-8 8h-117c-5 0-8-4-8-8 0 0 0 0 0 0v0-6c0-4 3-8 8-8h117c5 0 8 4 8 8v0z m67 164h-89v89h4c0 0 0 0 0 0 5 0 9-2 12-5l0 0 68-68c3-3 5-7 5-12v0z m460-630l-57-57c-9-9-21-14-34-14s-25 5-34 14l-199 200c-9 8-14 20-14 33 0 0 0 0 0 1v0 32c-70-55-159-88-255-88-1 0-1 0-1 0h0c-230 0-416 186-416 416s186 416 416 416 416-186 416-416c0 0 0 0 0-1 0-96-33-185-89-256l1 1h32c0 0 0 0 1 0 13 0 25-5 33-14l200-199c8-9 14-21 14-34 0-14-6-26-14-34l0 0z m-338 537c0 141-115 256-256 256s-256-115-256-256c0-141 115-256 256-256v0c0 0 0 0 0 0 141 0 256 115 256 256 0 0 0 0 0 0v0z" horiz-adv-x="1024" />
<glyph glyph-name="user-edit-solid" unicode="&#xe91e;" d="M358 448c113 0 205 93 205 205s-92 205-205 205-204-93-204-205c0 0 0 0 0 0 0-113 91-205 204-205 0 0 0 0 0 0h0z m144-51h-27c-75-33-160-33-233 0h-27c-119 0-215-96-215-214v0-67c0-44 33-77 77-77h439c-3 7-5 15-5 24 0 3 1 6 1 10l0-1 10 99 2 17 136 136c-38 46-97 73-158 73z m73-232l-10-99c-2-13 8-25 22-27h6l98 12 221 220-116 114z m437 262l-61 61c-16 16-39 16-53 0v0l-61-61-6-6 114-115 67 67c7 7 12 17 12 27s-5 20-12 27l0 0z" horiz-adv-x="1024" />
<glyph glyph-name="user-md-solid" unicode="&#xe91f;" d="M449 448c141 0 256 115 256 256s-115 256-256 256c-141 0-256-115-256-256v0c0 0 0 0 0-1 0-141 114-255 256-255 0 0 0 0 0 0h0z m-240-337c0-26 21-47 47-47s47 21 47 47c0 26-21 48-47 48v0 0c-26 1-47-20-47-48z m431 272v-98c74-16 128-80 128-158 0 0 0 0 0 0v0-83c0-15-12-27-26-31l-65-14c-8-2-17 4-19 12v0l-6 31c-2 8 2 18 12 20h2l39 8v57c0 126-193 130-193-4v-53l39-8c7-2 13-8 13-16 0-1 0-3-1-4l0 0-6-31c-2-7-8-12-16-12-1 0-2 0-4 0l0 0-62 8c-16 2-28 15-28 31v89c0 0 0 0 0 0 0 78 54 142 127 157l1 1v88c-4-2-10-2-14-4-34-12-74-19-115-19s-81 7-118 20l3-1c-14 6-30 8-46 10v-163c59-18 93-81 75-140s-80-93-140-75-92 81-74 140c10 36 38 64 74 74l1 1v161c-126-20-221-130-221-262v-88c0-52 39-91 91-91h716c1 0 1 0 1 0 48 0 88 40 88 88 0 0 0 0 0 1v0 88c0 146-112 262-256 270z" horiz-adv-x="896" />
<glyph glyph-name="user-selfie" unicode="&#xe920;" d="M844 253v-62c0 0 0 0 0 0 0-39-33-72-72-72h-527c-39 1-72 33-72 72v62c0 111 90 201 201 201h25c32-15 70-23 109-23s78 8 111 24l-2-1h25c0 0 0 0 0 0 111 0 201-89 202-201v0z m-527 441c0 106 86 191 192 191s191-85 191-191c0-106-86-192-191-192v0c0 0 0 0 0 0-106 0-192 86-192 192 0 0 0 0 0 0v0z m-258 63h-59v138c0 36 28 65 63 65h140v-61h-140c-2 0-4-2-4-4 0 0 0 0 0 0v0z m899 0h59v138c0 36-28 65-63 65h-140v-61h140c2 0 4-2 4-4 0 0 0 0 0 0v0z m0-618h59v-138c0-36-28-65-63-65h-140v61h140c2 0 4 2 4 4 0 0 0 0 0 0v0z m-899 0h-59v-138c0-36 28-65 63-65h140v61h-140c-2 0-4 2-4 4 0 0 0 0 0 0v0z" horiz-adv-x="1017" />
<glyph glyph-name="user-shield-solid" unicode="&#xe921;" d="M996 425l-185 71c-5 2-11 3-17 3s-13-1-19-3l1 0-185-71c-16-6-27-22-28-40v0c0-179 110-301 213-342 5-2 11-3 18-3s12 1 18 3l-1 0c83 31 213 142 213 342 0 18-11 34-27 40l-1 0z m-202-307v303l153-59c-4-103-63-195-153-244z m-436 330c113 0 205 93 205 205s-92 205-205 205-204-93-204-205 92-205 204-205z m154-63c0 1 0 2 0 2 0 4 1 7 2 10l0 0c-4 0-8 2-12 2h-27c-75-33-160-33-233 0h-27c-119-2-215-98-215-216v0-67c0-44 33-77 77-77h563c11 0 22 2 32 6l0 0c-98 79-160 200-160 334 0 2 0 5 0 7l0-1z" horiz-adv-x="1024" />
<glyph glyph-name="worker-hurt" unicode="&#xe922;" d="M173 608h544c0 0 0 0 0 0 9 0 16 7 16 15 0 0 0 0 0 0v0 63c0 0 0 0 0 0 0 9-7 16-16 16 0 0 0 0 0 0h-16c-2 38-12 73-28 104l0-2c-22 46-58 82-103 104l-1 1h-2l-57-112v132c0 0 0 0 0 0 0 17-14 31-31 31 0 0 0 0 0 0h-66c0 0 0 0 0 0-17 0-31-14-31-31 0 0 0 0 0-1v0-125l-51 108c-77-41-130-117-138-206l0-1h-20c-8 0-16-8-16-16v0-65c0 0 0 0 0 0 0-8 7-15 16-15 0 0 0 0 0 0h0z m152-264c181-85 358 33 376 199h-508c4-34 12-66 28-95 21-45 59-81 104-104z m526-187v0c-43 57-111 94-187 94h-69c-43-20-93-32-146-32s-103 12-148 33l2-1h-69c-130 0-234-104-234-232v-38c0 0 0 0 0 0 0-25 20-45 45-45 0 0 0 0 0 0l0 0h329c0 0 0 0 0 0-61 0-110 49-110 110 0 0 0 0 0 0v0c0 61 49 109 108 111l85-221h61l-87 221h75l87-221h61l-85 221h75l85-221h61l-85 221z" horiz-adv-x="851" />
<glyph glyph-name="hand-holding-usd" unicode="&#xe923;" d="M271 144l54 15a9 9 0 0 1 7 8c0 4-4 8-9 8h-36a30 30 0 0 1-11-2c-5-2-11-2-15 2l-19 17a12 12 0 0 0-2 3 11 11 0 0 0 3 16 84 84 0 0 0 35 11v18c0 9 8 16 17 16h18c9 0 17-7 17-16v-18c33-3 58-31 54-63-4-23-23-41-47-47l-54-15a9 9 0 0 1-7-8c0-4 4-8 9-8h36a30 30 0 0 1 11 2c5 2 11 2 15-2l19-17a11 11 0 0 0 3-3 11 11 0 0 0-4-16 84 84 0 0 0-35-11v-18c0-9-8-16-17-16h-18c-9 0-17 7-17 16v18c-33 3-58 31-54 63 4 23 23 41 47 47z m294 184c-12-11-30-10-42 0l-93 74a64 64 0 0 1-40 14h-118a16 16 0 0 1 0-32h78c16 0 31-11 34-27a31 31 0 0 0 0-5 32 32 0 0 0-32-32h-160a118 118 0 0 0-74 26l-47 38h-55a16 16 0 0 0-16 16v96a16 16 0 0 0 16 16h357a64 64 0 0 0 40-14l151-121a32 32 0 0 0 1-49z" horiz-adv-x="1024" />
</font>
</defs>
</svg>
